<svg width="0" height="0" class="hidden">
  <symbol xmlns="http://www.w3.org/2000/svg" viewBox="0 0 124.178 109.996" id="hero">
    <path d="M124.911.004c-13.564 1.21-24.208 8.372-32.528 18.95-8.306 10.558-14.33 24.554-18.705 39.568-2.093 7.18-3.815 12.945-5.23 17.682-2.074 6.94-3.49 11.677-4.448 15.436V27.022a11.548 11.548 0 1 0-2 .042V91.64c-.959-3.758-2.374-8.495-4.447-15.435-1.415-4.738-3.138-10.502-5.23-17.683-4.376-15.014-10.4-29.01-18.705-39.568C25.297 8.376 14.653 1.214 1.088.004L.912 1.996c12.886 1.15 23.065 7.936 31.134 18.194 8.085 10.276 14.018 24 18.357 38.892 2.113 7.247 3.842 13.035 5.258 17.772v.001c2.181 7.302 3.618 12.111 4.567 15.933 1.543 6.22 1.771 9.743 1.771 17.212h2.004c0-7.469.228-10.992 1.771-17.211.949-3.822 2.386-8.632 4.567-15.934l.002-.006a2600.1 2600.1 0 0 0 5.256-17.767C79.938 44.19 85.87 30.466 93.954 20.19c8.07-10.258 18.249-17.044 31.135-18.194ZM62.755 25.088a9.544 9.544 0 1 1 9.545-9.544 9.544 9.544 0 0 1-9.545 9.544Z" transform="translate(-.911 -.004)"></path>
  </symbol>
  <symbol xmlns="http://www.w3.org/2000/svg" viewBox="0 0 30.707 24.707" id="arrow">
    <path d="m30.354 12-12-12-.708.707 11.147 11.147H0v1h28.793L17.646 24l.708.707 12-12 .353-.353-.353-.354z"></path>
  </symbol>
  <symbol xmlns="http://www.w3.org/2000/svg" fill="none" viewBox="0 0 224 20" id="logo">
    <path d="M7.6175 19V6.10001H12.9775V5.00001H0.4375V6.10001H5.7975V19H7.6175Z" fill="black"></path>
    <path d="M17.9711 12C17.9711 12.7467 18.1111 13.5467 18.3911 14.4C18.6844 15.24 19.1378 16.02 19.7511 16.74C20.3644 17.46 21.1444 18.06 22.0911 18.54C23.0378 19.0067 24.1711 19.24 25.4911 19.24C26.3844 19.24 27.1911 19.1333 27.9111 18.92C28.6444 18.6933 29.2978 18.3933 29.8711 18.02C30.4578 17.6467 30.9644 17.22 31.3911 16.74C31.8178 16.2467 32.1644 15.7333 32.4311 15.2C32.7111 14.6533 32.9178 14.1067 33.0511 13.56C33.1978 13.0133 33.2711 12.4933 33.2711 12C33.2711 11.2533 33.1178 10.46 32.8111 9.62001C32.5044 8.76668 32.0311 7.98001 31.3911 7.26001C30.7511 6.54001 29.9378 5.94668 28.9511 5.48001C27.9778 5.00001 26.8244 4.76001 25.4911 4.76001C24.1711 4.76001 23.0378 4.99334 22.0911 5.46001C21.1444 5.92668 20.3644 6.52001 19.7511 7.24001C19.1378 7.94668 18.6844 8.72668 18.3911 9.58001C18.1111 10.4333 17.9711 11.24 17.9711 12ZM19.9311 12C19.9311 11.0667 20.0711 10.2133 20.3511 9.44001C20.6444 8.65334 21.0378 7.98001 21.5311 7.42001C22.0378 6.86001 22.6311 6.42668 23.3111 6.12001C23.9911 5.80001 24.7311 5.64001 25.5311 5.64001C26.3178 5.64001 27.0578 5.80001 27.7511 6.12001C28.4578 6.42668 29.0711 6.86001 29.5911 7.42001C30.1244 7.98001 30.5444 8.65334 30.8511 9.44001C31.1578 10.2133 31.3111 11.0667 31.3111 12C31.3111 12.9333 31.1578 13.7933 30.8511 14.58C30.5444 15.3533 30.1244 16.02 29.5911 16.58C29.0711 17.14 28.4578 17.58 27.7511 17.9C27.0578 18.2067 26.3178 18.36 25.5311 18.36C24.7311 18.36 23.9911 18.2067 23.3111 17.9C22.6311 17.58 22.0378 17.14 21.5311 16.58C21.0378 16.02 20.6444 15.3533 20.3511 14.58C20.0711 13.7933 19.9311 12.9333 19.9311 12Z" fill="black"></path>
    <path d="M40.8758 5.00001V13.6C40.8758 14.1467 40.9291 14.7533 41.0358 15.42C41.1424 16.0733 41.3958 16.6867 41.7958 17.26C42.1958 17.82 42.7891 18.2933 43.5758 18.68C44.3624 19.0533 45.4358 19.24 46.7958 19.24C47.6491 19.24 48.4024 19.1067 49.0558 18.84C49.7224 18.5733 50.2758 18.2067 50.7158 17.74C51.1691 17.2733 51.5091 16.7333 51.7358 16.12C51.9624 15.4933 52.0758 14.8267 52.0758 14.12V5.00001H51.1958V13.46C51.1958 13.7533 51.1891 14.0533 51.1758 14.36C51.1624 14.6533 51.1224 14.9533 51.0558 15.26C50.9891 15.5533 50.8824 15.8467 50.7358 16.14C50.6024 16.4333 50.4024 16.7267 50.1358 17.02C49.6558 17.54 49.1158 17.8933 48.5158 18.08C47.9158 18.2667 47.2891 18.36 46.6358 18.36C46.0758 18.36 45.5758 18.2733 45.1358 18.1C44.7091 17.9267 44.3024 17.6667 43.9158 17.32C43.6091 17.0533 43.3758 16.7867 43.2158 16.52C43.0558 16.2533 42.9358 15.9933 42.8558 15.74C42.7758 15.4733 42.7291 15.2067 42.7158 14.94C42.7024 14.6733 42.6958 14.4067 42.6958 14.14V5.00001H40.8758Z" fill="black"></path>
    <path d="M66.2503 19V6.10001H71.6103V5.00001H59.0703V6.10001H64.4303V19H66.2503Z" fill="black"></path>
    <path d="M79.4102 5.00001V19H88.4502V17.9H81.2302V12.04H87.4302V11.12H81.2302V6.10001H88.4502V5.00001H79.4102Z" fill="black"></path>
    <path d="M108.434 19V5.00001H110.254V17.9H117.474V19H108.434Z" fill="black"></path>
    <path d="M125.105 8.68001H124.265L123.665 4.06001H125.665L125.105 8.68001Z" fill="black"></path>
    <path d="M141.448 14.88L143.368 19H145.308L138.788 5.00001H137.788L131.868 19H132.788L134.548 14.88H141.448ZM141.028 13.98H134.928L137.808 7.24001H137.888L141.028 13.98Z" fill="black"></path>
    <path d="M164.596 5.00001V15.7H164.516L153.416 4.76001H153.316V19H154.236V8.30001H154.316L165.416 19.24H165.516V5.00001H164.596Z" fill="black"></path>
    <path d="M186.589 5.00001V15.7H186.509L175.409 4.76001H175.309V19H176.229V8.30001H176.309L187.409 19.24H187.509V5.00001H186.589Z" fill="black"></path>
    <path d="M197.301 5.00001V19H206.341V17.9H199.121V12.04H205.321V11.12H199.121V6.10001H206.341V5.00001H197.301ZM200.641 0.76001H202.861L199.761 3.30001H198.981L200.641 0.76001Z" fill="black"></path>
    <path d="M214.332 5.00001V19H223.372V17.9H216.152V12.04H222.352V11.12H216.152V6.10001H223.372V5.00001H214.332Z" fill="black"></path>
  </symbol>
  <symbol fill="#000000" version="1.1" id="bag" xmlns="http://www.w3.org/2000/svg" xmlns:xlink="http://www.w3.org/1999/xlink" xml:space="preserve" viewBox="0 0 511 511">
    <path d="M445.663,469.921l-14.362-359.041C430.968,102.537,424.165,96,415.814,96H351v-0.5C351,42.841,308.159,0,255.5,0
	S160,42.841,160,95.5V96H95.187c-8.351,0-15.153,6.536-15.488,14.88L65.337,469.921c-0.434,10.842,3.468,21.122,10.985,28.946
	C83.84,506.691,93.956,511,104.806,511h301.389c10.851,0,20.966-4.309,28.484-12.133
	C442.195,491.042,446.097,480.763,445.663,469.921z M175,95.5c0-44.388,36.112-80.5,80.5-80.5S336,51.112,336,95.5V96H175V95.5z
	 M423.862,488.474c-4.663,4.853-10.938,7.526-17.667,7.526H104.806c-6.73,0-13.004-2.672-17.667-7.525
	c-4.663-4.853-7.083-11.229-6.813-17.954L94.687,111.48c0.011-0.27,0.23-0.48,0.5-0.48H160v48.5c0,4.142,3.358,7.5,7.5,7.5
	s7.5-3.358,7.5-7.5V111h161v48.5c0,4.142,3.358,7.5,7.5,7.5s7.5-3.358,7.5-7.5V111h64.814c0.269,0,0.488,0.21,0.499,0.48
	l14.362,359.041C430.944,477.245,428.524,483.621,423.862,488.474z"></path>
  </symbol>
  <symbol xmlns="http://www.w3.org/2000/svg" viewBox="0 0 263.427 404" id="card_2">
    <path d="M186.717 217q.504-12.845.51-26.194c0-46.335-4.717-88.821-12.567-121.848-4.964-20.886-11.194-38.042-18.311-50.003C149.267 7.055 141.119 0 132.227 0c-7.966 0-15.33 5.666-21.849 15.358-6.544 9.728-12.397 23.738-17.297 40.961-9.804 34.46-15.854 82.008-15.854 134.487q0 13.33.509 26.194H0l38.41 187H229.06l34.368-187ZM154.63 19.978c6.971 11.715 13.143 28.653 18.084 49.443 7.807 32.846 12.513 75.172 12.513 121.385q0 13.311-.51 26.155l1 .039h-39.49c-.009-46.275-1.141-115.02-3.021-147.868-1.193-20.848-2.687-37.928-4.389-49.808a102.557 102.557 0 0 0-2.716-13.816 19.955 19.955 0 0 0-1.24-3.27c6.852 1.24 13.555 7.298 19.769 17.74ZM131.785 2.74a2.792 2.792 0 0 1 .468-.698l.014-.013a2.095 2.095 0 0 1 .586.709 15.322 15.322 0 0 1 1.332 3.342 100.916 100.916 0 0 1 2.652 13.528c1.69 11.796 3.181 28.81 4.372 49.638 1.877 32.789 3.009 101.488 3.018 147.754h-24c.009-52.242 1.462-106.134 3.806-147.003 1.175-20.503 2.574-37.71 4.125-49.783a121.592 121.592 0 0 1 2.416-13.96 17.993 17.993 0 0 1 1.211-3.514ZM79.227 190.806c0-52.348 6.037-99.703 15.778-133.94 4.872-17.124 10.654-30.91 17.032-40.392 5.663-8.418 11.669-13.269 17.788-14.276a21.956 21.956 0 0 0-1.186 3.554 123.284 123.284 0 0 0-2.464 14.207c-1.56 12.143-2.962 29.405-4.139 49.924-2.347 40.913-3.8 94.844-3.809 147.117h-39.49l1-.039q-.505-12.824-.51-26.155ZM227.393 402H40.042L2.452 219h258.574Z"></path>
  </symbol>
  <symbol xmlns="http://www.w3.org/2000/svg" viewBox="0 0 263.427 353.977" id="card_3">
    <path d="M223.886 166.977c-1.919-13.412-3.654-31.542-3.093-46.936.29-7.967 1.193-15.133 2.968-20.516 1.593-4.832 3.802-7.984 6.669-9.21q.591-.206 1.16-.383l-.535-1.926a9.155 9.155 0 0 0-1.372.452c-10.153 3.578-24.17 13.07-38.417 26.479q-2.142 2.016-4.292 4.152c-4.055-28.43-21.743-55.835-41.965-77.218a210.017 210.017 0 0 0-31.863-27.656C103.461 7.47 94.416 2.664 87.25.42A10.354 10.354 0 0 0 85.818 0l-.478 1.941q.606.167 1.234.363c3.13 1.187 5.472 4.267 7.132 8.906 1.855 5.182 2.759 12.061 3.003 19.632.488 15.114-1.659 32.693-3.796 44.28-5.792 24.305-8.937 36.572-10.632 42.76-.716 2.614-1.17 4.133-1.455 5.01q-4.235-4.37-8.486-8.306C58.06 101.343 44.037 91.975 33.87 88.442a9.075 9.075 0 0 0-1.34-.437L32 89.933q.557.172 1.133.37c2.808 1.183 5.037 4.234 6.709 8.926 1.863 5.227 2.925 12.204 3.398 20.005.938 15.459-.451 33.9-2.276 47.743H0l38.41 187H229.06l34.368-187Zm-31.249-50.584c11.653-10.967 23.031-19.178 32.128-23.663a24.774 24.774 0 0 0-2.903 6.168c-1.862 5.648-2.775 13.033-3.068 21.07-.563 15.451 1.16 33.566 3.072 47.01h-69.341a223.095 223.095 0 0 1 40.112-50.585ZM112.002 15.856a207.955 207.955 0 0 1 31.554 27.39c20.45 21.624 38.091 49.254 41.64 77.631a223.258 223.258 0 0 0-34.97 46.1h-10.328c2.48-24.839 3.275-56.304-2.665-86.197-5.564-28-17.06-54.72-38.717-73.277a136.857 136.857 0 0 1 13.486 8.353ZM82.579 123.962c.285-.837.78-2.443 1.631-5.552 1.705-6.222 4.858-18.523 10.654-42.85l.006-.025.005-.025c2.154-11.668 4.328-29.414 3.833-44.733-.247-7.651-1.16-14.77-3.118-20.24a25.225 25.225 0 0 0-2.12-4.56c23.62 18.204 35.97 45.847 41.801 75.193 5.903 29.704 5.102 61.04 2.617 85.807H114.14l.024-.014a222.058 222.058 0 0 0-31.783-42.45c.054-.141.119-.32.198-.551Zm-37.343-4.849c-.477-7.875-1.555-15.068-3.51-20.555a24.995 24.995 0 0 0-2.888-5.855c9.103 4.433 20.476 12.531 32.143 23.349a223.583 223.583 0 0 1 40.886 50.925H42.981c1.817-13.883 3.198-32.328 2.255-47.864Zm182.157 232.864H40.042l-37.59-183h258.574Z"></path>
  </symbol>
  <symbol xmlns="http://www.w3.org/2000/svg" viewBox="0 0 268.2 442" id="card_4">
    <path d="M190.904 255A635.71 635.71 0 0 0 194 191.5c0-52.671-6.107-100.393-16.001-134.979-4.946-17.286-10.853-31.348-17.457-41.11C153.962 5.68 146.532 0 138.5 0s-15.462 5.682-22.042 15.41c-6.604 9.763-12.511 23.825-17.457 41.11C90.472 86.335 84.757 125.909 83.343 170c-3.965-.05-7.456-1.99-10.552-5.456-3.149-3.526-5.832-8.576-8.088-14.606-4.51-12.054-7.218-27.763-8.66-42.269a416.286 416.286 0 0 1-1.913-43.347l.002-.02.006-.087.006-.077a65.252 65.252 0 0 0 .12-2.916c.036-1.95.011-4.683-.235-7.821-.49-6.254-1.866-14.218-5.463-20.8C44.706 25.507 38.24 20 27.671 20c-6.899 0-12.144 2.16-16.098 5.777C5.696 31.162 2.836 39.614 1.42 48.34 0 57.078 0 66.286 0 73.362v.03q0 12.165.397 23.442c1.586 45.209 7.838 79.732 17.752 105.828 9.206 24.284 20.68 40.852 35.366 52.338H4.773l38.411 187h190.649L268.2 255ZM139 2.008c6.846.231 13.579 5.198 19.886 14.523 6.436 9.516 12.273 23.353 17.19 40.54C185.906 91.433 192 138.96 192 191.5a633.463 633.463 0 0 1-3.106 63.5H139Zm-38.076 55.063c4.917-17.187 10.754-31.024 17.19-40.54 6-8.87 12.385-13.797 18.886-14.455V255H88.106A633.342 633.342 0 0 1 85 191.5c0-52.539 6.094-100.067 15.924-134.429ZM46.81 33.556v.001c3.399 6.22 4.743 13.855 5.225 20 .24 3.06.265 5.727.229 7.626a63 63 0 0 1-.116 2.814l-.005.07-.006.08-.002.036-.001.008v.002l-.003.037v.039a418.336 418.336 0 0 0 1.921 43.593v.003c1.45 14.572 4.179 30.48 8.778 42.773 2.298 6.143 5.088 11.45 8.47 15.237 3.342 3.743 7.317 6.053 11.982 6.123q-.28 9.62-.282 19.502c0 9.885.215 19.596.63 29.077-14.898-4.434-26.17-14.91-34.59-29.188-8.732-14.806-14.362-33.649-17.745-53.906-6.685-40.04-4.549-85.362-.463-115.295 7.836.963 12.8 5.531 15.978 11.368ZM20.02 201.953v-.001c-9.81-25.823-16.042-60.11-17.624-105.188Q2 85.524 2 73.392c0-7.102.002-16.166 1.393-24.732 1.395-8.591 4.16-16.487 9.53-21.407C16.48 24 21.23 22 27.671 22q.592 0 1.164.025c-4.094 30.062-6.234 75.536.487 115.788 3.404 20.386 9.09 39.494 17.994 54.592 8.725 14.795 20.572 25.785 36.41 30.283A605.949 605.949 0 0 0 86.096 255h-29.27c-15.319-11.243-27.256-27.855-36.806-53.047ZM232.167 440H44.815L7.226 257h258.573Z"></path>
  </symbol>
  <symbol xmlns="http://www.w3.org/2000/svg" viewBox="0 0 263.427 419.994" id="card-1">
    <path d="M169.329 232.994c7.406-22.084 15.825-39.681 24.251-53.639 12.282-20.348 24.582-32.972 33.783-40.499a85.342 85.342 0 0 1 11.099-7.803 47.33 47.33 0 0 1 3.083-1.651c.353-.171.62-.293.798-.371l.122-.054.075-.031.046-.02.009-.004h.001l-.107-.267-.265-.661-.374-.928-.007.003-.018.007-.061.026a24.69 24.69 0 0 0-1.091.5c-.748.362-1.836.922-3.214 1.721a87.197 87.197 0 0 0-11.362 7.985c-9.378 7.671-21.828 20.469-34.23 41.014-8.586 14.225-17.146 32.16-24.647 54.672h-21.763c5.756-51.177 16.021-106.652 34.237-150.481 18.429-44.34 44.844-76.421 82.641-80.525L262.12 0c-38.945 4.228-65.777 37.245-84.272 81.745q-2.622 6.305-5.026 12.913c-5.259-19.522-15.093-35.528-23.791-46.808a147.865 147.865 0 0 0-12.012-13.766 107.966 107.966 0 0 0-3.745-3.607 64.939 64.939 0 0 0-1.309-1.165l-.071-.06-.019-.017-.006-.004-.001-.002s-.004.003-.409.485l.408-.485-.637-.536-.642.53.636.771a99.054 99.054 0 0 0-.637-.77l-.007.005-.019.016-.07.059q-.093.077-.27.229c-.235.202-.578.501-1.018.895a105.64 105.64 0 0 0-3.686 3.485 143.897 143.897 0 0 0-11.832 13.309c-8.642 10.998-18.44 26.656-23.657 45.797q-2.13-5.749-4.422-11.274C67.11 37.245 40.278 4.228 1.334 0l-.216 1.988c37.797 4.104 64.212 36.184 82.64 80.525 18.217 43.829 28.482 99.304 34.238 150.481H96.233c-7.5-22.512-16.06-40.447-24.647-54.672-12.401-20.545-24.852-33.343-34.23-41.014a87.23 87.23 0 0 0-11.362-7.985 49.127 49.127 0 0 0-3.214-1.721 24.518 24.518 0 0 0-1.09-.5l-.04-.016-.022-.01-.018-.007-.007-.003-.373.928-.373.928h.001l.01.004.046.02.08.034.036.015.08.036c.178.078.446.2.799.371.705.341 1.749.878 3.083 1.651a85.31 85.31 0 0 1 11.098 7.803c9.202 7.527 21.501 20.151 33.783 40.499 8.426 13.958 16.846 31.555 24.252 53.639H0l38.41 187H229.06l34.368-187ZM132.227 32.23c.85.785 1.998 1.877 3.372 3.262a145.797 145.797 0 0 1 11.849 13.578c9.014 11.692 19.223 28.471 24.169 48.95-14.512 41.128-23.101 89.792-28.173 134.974h-11.217ZM91.194 96.215l.069.017c4.907-20.025 15.055-36.397 23.995-47.775a141.9 141.9 0 0 1 11.666-13.123c1.344-1.329 2.468-2.379 3.303-3.136v200.796h-10.218c-5.146-45.845-13.913-95.274-28.815-136.779Zm136.199 321.779H40.042l-37.59-183h258.574Z"></path>
  </symbol>
  <symbol xmlns="http://www.w3.org/2000/svg" fill="none" viewBox="0 0 24 24" id="chat">
    <path fill="#000000" fill-rule="evenodd" d="M2 12C2 6.477 6.477 2 12 2s10 4.477 10 10-4.477 10-10 10a9.96 9.96 0 0 1-4.935-1.3l-3.749 1.249a1 1 0 0 1-1.265-1.265l1.25-3.749A9.959 9.959 0 0 1 2 12zm6-5a1 1 0 0 0 0 2h8a1 1 0 1 0 0-2H8zm0 4a1 1 0 1 0 0 2h8a1 1 0 1 0 0-2H8zm0 4a1 1 0 1 0 0 2h3a1 1 0 1 0 0-2H8z" clip-rule="evenodd"></path>
  </symbol>
  <symbol xmlns="http://www.w3.org/2000/svg" viewBox="0 0 75.437 148.929" id="grid_1">
    <path d="M38.748 93.002a114.657 114.657 0 0 1 2.832-15.163 83.953 83.953 0 0 1 8.142-21.68 4.001 4.001 0 0 0 4.285-6.739A62.272 62.272 0 0 1 75.07 30.067a.535.535 0 0 0-.506-.933 63.18 63.18 0 0 0-21.474 19.788 4 4 0 0 0-4.264 6.563l.062.06a84.894 84.894 0 0 0-8.246 21.942c-.811 3.43-1.573 6.76-2.143 10.093V23.45a11.439 11.439 0 1 0-1 .033v63.376c-.484-3.092-1.121-6.185-1.854-9.281a80.65 80.65 0 0 0-15.7-32.647 4.001 4.001 0 0 0-5.285-5.743 59.096 59.096 0 0 0-13.412-9.79.502.502 0 0 0-.661.25.501.501 0 0 0 .165.688 58.2 58.2 0 0 1 13.065 9.501 4 4 0 0 0 5.42 5.875A79.746 79.746 0 0 1 34.71 77.929 104.265 104.265 0 0 1 37.267 93C16.643 93.037 0 95.574 0 98.698c0 3.137 16.77 5.681 37.5 5.699V149a.5.5 0 0 0 1 0v-44.604c20.47-.063 36.937-2.59 36.937-5.698 0-3.095-16.334-5.614-36.69-5.696Zm10.786-42.467a3 3 0 1 1 0 4.243 3 3 0 0 1 0-4.243Zm-30.757-5.757a3 3 0 1 1 0-4.243 3 3 0 0 1 0 4.243ZM37.5 103.397a186.72 186.72 0 0 1-26.303-1.658A44.936 44.936 0 0 1 3.3 99.975a7.848 7.848 0 0 1-1.94-.933 1.204 1.204 0 0 1-.351-.344 1.203 1.203 0 0 1 .35-.343 7.844 7.844 0 0 1 1.94-.933 44.982 44.982 0 0 1 7.897-1.764A186.382 186.382 0 0 1 37.346 94q.111 1.545.154 3.089Zm-9.96-88.664a10.453 10.453 0 1 1 12.802 7.391 10.453 10.453 0 0 1-12.802-7.391Zm46.537 84.31a7.848 7.848 0 0 1-1.94.932 44.937 44.937 0 0 1-7.897 1.764 185.307 185.307 0 0 1-25.74 1.657v-6.65q.045-1.38.158-2.744a184.913 184.913 0 0 1 25.582 1.656 44.983 44.983 0 0 1 7.896 1.764 7.844 7.844 0 0 1 1.94.932 1.203 1.203 0 0 1 .35.344 1.204 1.204 0 0 1-.35.344Z" transform="translate(0 -.571)"></path>
  </symbol>
  <symbol xmlns="http://www.w3.org/2000/svg" viewBox="0 0 111.071 154.813" id="grid_2">
    <path d="M74.544 84.678c-16.054 8.475-29.05 25.59-34.397 48.18a121.166 121.166 0 0 0-2.437 13.214c-.177-1.029-.41-2.255-.674-3.629l-.107-.555a369.75 369.75 0 0 1-1.34-7.252 113.955 113.955 0 0 1-1.91-18.574c.477-40.615 16.054-74.778 40.075-95.428a11.428 11.428 0 1 0-.832-.684c-24.144 20.837-39.755 55.195-40.235 95.978v.006a92.207 92.207 0 0 0 .825 11.49C27.432 107.769 15.35 92.887.73 85.171a.503.503 0 0 0-.662.25.501.501 0 0 0 .166.687C16.05 94.458 28.9 111.35 34.19 133.702a97.554 97.554 0 0 1 2.948 20.654.437.437 0 0 0 .488.453.575.575 0 0 0 .476-.575l-.003-.187a.51.51 0 0 0 .036-.183 97.547 97.547 0 0 1 2.948-20.655c5.29-22.351 18.14-39.243 33.956-47.593a.535.535 0 0 0-.496-.938Zm-4.138-70.934a10.453 10.453 0 1 1 12.487 7.911 10.453 10.453 0 0 1-12.487-7.912Z"></path>
    <path d="M110.226 46.63a21.053 21.053 0 0 1-29.043 6.535l-18.761-12.62-.558.83 18.779 12.631a22.053 22.053 0 0 0 30.428-6.841Z"></path>
    <path d="M104 49a4 4 0 1 0-4-4 4 4 0 0 0 4 4Zm0-7a3 3 0 1 1-3 3 3 3 0 0 1 3-3Z"></path>
  </symbol>
  <symbol xmlns="http://www.w3.org/2000/svg" viewBox="0 0 130.114 152" id="grid_3">
    <path d="M130.396 147.743c-27.31-14.416-49.478-43.571-58.604-82.128-2.715-11.47-4.877-23.722-5.077-35.113a11.955 11.955 0 0 0 5.677-21.785V2.962h-3.616L65.829 0l-2.947 2.962h-3.885v5.706a11.954 11.954 0 0 0 5.433 21.817c-.197 11.396-2.36 23.653-5.077 35.13C50.227 104.172 28.06 133.327.75 147.743a.501.501 0 0 0-.165.687.503.503 0 0 0 .661.251c27.546-14.541 49.861-43.919 59.044-82.715a189.69 189.69 0 0 0 4.789-28.75V151.5a.5.5 0 0 0 1 0V37.368a190.121 190.121 0 0 0 4.777 28.598c9.182 38.796 31.497 68.174 59.043 82.715a.535.535 0 0 0 .497-.938ZM59.997 3.963h3.3l2.532-2.545 2.531 2.545h3.032v6.348H59.997ZM66.22 29.53l-.03.005q-.414.02-.837.008a10.954 10.954 0 0 1-6.355-19.644v1.413h13.395V9.955a10.954 10.954 0 0 1-6.076 19.573.455.455 0 0 0-.097.002Z" transform="translate(-.516)"></path>
  </symbol>
  <symbol xmlns="http://www.w3.org/2000/svg" viewBox="0 0 75.274 157.409" id="grid_4">
    <path d="M44.397 12.211h-1a6.013 6.013 0 1 1-12.025 0h-1a7.013 7.013 0 1 0 14.025 0Z"></path>
    <path d="M74.544 85.548c-16.054 8.474-29.05 25.59-34.396 48.18-.77 3.25-1.466 6.619-1.99 9.992v-22.142a100.412 100.412 0 0 1 2.926-19.649c5.29-22.351 18.14-39.244 33.957-47.593a.535.535 0 0 0-.497-.938c-16.054 8.474-29.05 25.59-34.396 48.18-.77 3.25-1.465 6.619-1.99 9.992V31.943a4 4 0 0 0-.177-7.912v-1.137a11.454 11.454 0 1 0-1 .003v1.134a4 4 0 0 0 .176 7.956v79.836c-.53-3.458-1.241-6.913-2.03-10.245C29.78 78.988 16.784 61.872.73 53.398a.503.503 0 0 0-.661.25.501.501 0 0 0 .165.688c15.817 8.35 28.666 25.242 33.957 47.593a97.547 97.547 0 0 1 2.948 20.654.523.523 0 0 0 .018.131v21.259c-.53-3.458-1.241-6.913-2.03-10.245C29.78 111.138 16.784 94.022.73 85.548a.503.503 0 0 0-.661.25.501.501 0 0 0 .165.687c15.817 8.35 28.666 25.242 33.957 47.594a97.547 97.547 0 0 1 2.948 20.654.523.523 0 0 0 .018.131v2.045a.5.5 0 0 0 1 0v-3.181a100.404 100.404 0 0 1 2.927-19.649c5.29-22.352 18.14-39.244 33.956-47.594a.535.535 0 0 0-.496-.937ZM26.99 11.453a10.453 10.453 0 1 1 10.453 10.453 10.453 10.453 0 0 1-10.453-10.453ZM37.509 31h-.057a3 3 0 1 1 .058 0Z"></path>
  </symbol>
</svg>